<svg xmlns="http://www.w3.org/2000/svg" version="1.1" xmlns:xlink="http://www.w3.org/1999/xlink" xmlns:svgjs="http://svgjs.dev/svgjs" width="128" height="128" viewBox="0 0 128 128"><g transform="matrix(0.8046875,0,0,0.8046875,12.333870967741937,46.536003832547166)"><svg viewBox="0 0 155 53" data-background-color="#ffffff" preserveAspectRatio="xMidYMid meet" height="43" width="128" xmlns="http://www.w3.org/2000/svg" xmlns:xlink="http://www.w3.org/1999/xlink"><g id="tight-bounds" transform="matrix(1,0,0,1,0.25,0.25)"><svg viewBox="0 0 154.5 52.5" height="52.5" width="154.5"><g><svg viewBox="0 0 154.5 52.5" height="52.5" width="154.5"><g><svg viewBox="0 0 154.5 52.5" height="52.5" width="154.5"><g><svg viewBox="0 0 154.5 52.5" height="52.5" width="154.5"><g><svg viewBox="0 0 154.5 52.5" height="52.5" width="154.5"><g transform="matrix(1,0,0,1,0,0)"><svg width="154.5" viewBox="2.85 -35 102.99000000000001 35" height="52.5" data-palette-color="#4b91f1"><path d="M23.8 0L17.85-8.8 14.65-8.8 14.65 0 2.85 0 2.85-35 19.7-35Q24.55-35 28.15-33.4 31.75-31.8 33.7-28.8 35.65-25.8 35.65-21.8L35.65-21.8Q35.65-18.05 33.95-15.25 32.25-12.45 29.05-10.8L29.05-10.8 36.4 0 23.8 0ZM23.75-21.8Q23.75-23.75 22.55-24.83 21.35-25.9 18.95-25.9L18.95-25.9 14.65-25.9 14.65-17.7 18.95-17.7Q21.35-17.7 22.55-18.78 23.75-19.85 23.75-21.8L23.75-21.8ZM47.2 0L47.2-25.85 36.95-25.85 36.95-35 69.25-35 69.25-25.85 59-25.85 59 0 47.2 0ZM93.25 0L87.3-8.8 84.1-8.8 84.1 0 72.3 0 72.3-35 89.15-35Q94-35 97.6-33.4 101.2-31.8 103.15-28.8 105.09-25.8 105.09-21.8L105.09-21.8Q105.09-18.05 103.4-15.25 101.7-12.45 98.5-10.8L98.5-10.8 105.84 0 93.25 0ZM93.2-21.8Q93.2-23.75 92-24.83 90.8-25.9 88.4-25.9L88.4-25.9 84.1-25.9 84.1-17.7 88.4-17.7Q90.8-17.7 92-18.78 93.2-19.85 93.2-21.8L93.2-21.8Z" opacity="1" transform="matrix(1,0,0,1,0,0)" fill="#4b91f1" class="undefined-text-0" data-fill-palette-color="primary" id="text-0"></path></svg></g></svg></g></svg></g></svg></g><g></g></svg></g><defs></defs></svg><rect width="154.5" height="52.5" fill="none" stroke="none" visibility="hidden"></rect></g></svg></g></svg>