<svg width="1060" height="180" viewBox="0 0 1060 180" fill="none" xmlns="http://www.w3.org/2000/svg">
<g clip-path="url(#clip0_4_142)">
<g clip-path="url(#clip1_4_142)">
<g clip-path="url(#clip2_4_142)">
<g clip-path="url(#clip3_4_142)">
<g clip-path="url(#clip4_4_142)">
<g clip-path="url(#clip5_4_142)">
<path d="M237.76 122.549H1.33838V129.911H237.76V122.549Z" fill="#404756"/>
<path d="M1057.38 122.549H820.956V129.911H1057.38V122.549Z" fill="#404756"/>
<g clip-path="url(#clip6_4_142)">
<g clip-path="url(#clip7_4_142)">
<path d="M45.3234 79.9456L32.8402 60.3162H26.1265V79.9456H1.36987V1.87427H36.7215C43.5051 1.87427 49.4145 3.06392 54.4498 5.44324C59.485 7.82256 63.3664 11.2428 66.0938 15.7041C68.8212 20.1653 70.1849 25.37 70.1849 31.3183C70.1849 36.8948 68.9961 41.765 66.6183 45.9288C64.2406 50.0926 60.8138 53.4014 56.338 55.855L71.7585 79.9456H45.3234ZM45.2185 31.3183C45.2185 28.4185 44.3793 26.1656 42.7009 24.5596C41.0225 22.9684 38.5048 22.1728 35.148 22.1728H26.1265V40.4638H35.148C38.5048 40.4638 41.0225 39.6608 42.7009 38.0548C44.3793 36.4636 45.2185 34.2181 45.2185 31.3183ZM118.02 81.7301C110.117 81.7301 103.019 79.9828 96.7249 76.4882C90.4308 72.9935 85.5005 68.1383 81.9339 61.9223C78.3672 55.7212 76.5839 48.7171 76.5839 40.9099C76.5839 33.1028 78.3672 26.0913 81.9339 19.8753C85.5005 13.6742 90.4308 8.82633 96.7249 5.33171C103.019 1.83709 110.117 0.0897827 118.02 0.0897827C125.922 0.0897827 133.021 1.83709 139.315 5.33171C145.609 8.82633 150.539 13.6742 154.106 19.8753C157.672 26.0913 159.456 33.1028 159.456 40.9099C159.456 48.7171 157.672 55.7212 154.106 61.9223C150.539 68.1383 145.609 72.9935 139.315 76.4882C133.021 79.9828 125.922 81.7301 118.02 81.7301ZM118.02 60.4278C121.097 60.4278 123.873 59.6248 126.349 58.0187C128.839 56.4276 130.818 54.1598 132.286 51.2154C133.755 48.2858 134.489 44.8507 134.489 40.9099C134.489 36.9692 133.755 33.5266 132.286 30.5822C130.818 27.6527 128.839 25.3849 126.349 23.7789C123.873 22.1877 121.097 21.3921 118.02 21.3921C114.943 21.3921 112.159 22.1877 109.67 23.7789C107.194 25.3849 105.222 27.6527 103.753 30.5822C102.285 33.5266 101.55 36.9692 101.55 40.9099C101.55 44.8507 102.285 48.2858 103.753 51.2154C105.222 54.1598 107.194 56.4276 109.67 58.0187C112.159 59.6248 114.943 60.4278 118.02 60.4278ZM206.451 81.7301C198.689 81.7301 191.695 79.9977 185.471 76.5328C179.247 73.0828 174.366 68.2498 170.827 62.0338C167.302 55.8327 165.54 48.7914 165.54 40.9099C165.54 33.0285 167.302 25.9797 170.827 19.7638C174.366 13.5627 179.247 8.72968 185.471 5.2648C191.695 1.81479 198.689 0.0897827 206.451 0.0897827C213.585 0.0897827 219.949 1.42815 225.543 4.10488C231.138 6.78161 235.754 10.648 239.39 15.7041L223.76 30.5376C219.214 24.4406 213.864 21.3921 207.71 21.3921C202.535 21.3921 198.374 23.1543 195.227 26.6787C192.08 30.2179 190.506 34.9616 190.506 40.9099C190.506 46.8582 192.08 51.5946 195.227 55.1189C198.374 58.6582 202.535 60.4278 207.71 60.4278C213.864 60.4278 219.214 57.3793 223.76 51.2823L239.39 66.1158C235.754 71.1719 231.138 75.0383 225.543 77.715C219.949 80.3917 213.585 81.7301 206.451 81.7301ZM294.757 79.9456L276.399 54.0705L270.84 60.6508V79.9456H246.503V1.87427H270.84V30.203L294.967 1.87427H321.926L292.554 36.2257L323.395 79.9456H294.757ZM351.089 60.0932H387.804V79.9456H326.752V1.87427H386.441V21.7267H351.089V30.8722H382.14V49.8324H351.089V60.0932ZM413.295 79.9456V22.2843H391.79V1.87427H459.557V22.2843H438.052V79.9456H413.295ZM513.35 79.9456V22.2843H491.845V1.87427H559.611V22.2843H538.106V79.9456H513.35ZM603.46 81.7301C595.557 81.7301 588.459 79.9828 582.165 76.4882C575.871 72.9935 570.94 68.1383 567.374 61.9223C563.807 55.7212 562.024 48.7171 562.024 40.9099C562.024 33.1028 563.807 26.0913 567.374 19.8753C570.94 13.6742 575.871 8.82633 582.165 5.33171C588.459 1.83709 595.557 0.0897827 603.46 0.0897827C611.362 0.0897827 618.461 1.83709 624.755 5.33171C631.049 8.82633 635.979 13.6742 639.546 19.8753C643.112 26.0913 644.896 33.1028 644.896 40.9099C644.896 48.7171 643.112 55.7212 639.546 61.9223C635.979 68.1383 631.049 72.9935 624.755 76.4882C618.461 79.9828 611.362 81.7301 603.46 81.7301ZM603.46 60.4278C606.537 60.4278 609.32 59.6248 611.81 58.0187C614.286 56.4276 616.258 54.1598 617.726 51.2154C619.195 48.2858 619.929 44.8507 619.929 40.9099C619.929 36.9692 619.195 33.5266 617.726 30.5822C616.258 27.6527 614.286 25.3849 611.81 23.7789C609.32 22.1877 606.537 21.3921 603.46 21.3921C600.383 21.3921 597.606 22.1877 595.131 23.7789C592.641 25.3849 590.662 27.6527 589.193 30.5822C587.725 33.5266 586.99 36.9692 586.99 40.9099C586.99 44.8507 587.725 48.2858 589.193 51.2154C590.662 54.1598 592.641 56.4276 595.131 58.0187C597.606 59.6248 600.383 60.4278 603.46 60.4278ZM729.341 79.9456L716.858 60.3162H710.144V79.9456H685.387V1.87427H720.739C727.523 1.87427 733.432 3.06392 738.467 5.44324C743.503 7.82256 747.384 11.2428 750.111 15.7041C752.839 20.1653 754.202 25.37 754.202 31.3183C754.202 36.8948 753.014 41.765 750.636 45.9288C748.258 50.0926 744.831 53.4014 740.356 55.855L755.776 79.9456H729.341ZM729.236 31.3183C729.236 28.4185 728.397 26.1656 726.718 24.5596C725.04 22.9684 722.522 22.1728 719.166 22.1728H710.144V40.4638H719.166C722.522 40.4638 725.04 39.6608 726.718 38.0548C728.397 36.4636 729.236 34.2181 729.236 31.3183ZM787.855 60.0932H824.57V79.9456H763.518V1.87427H823.206V21.7267H787.855V30.8722H818.905V49.8324H787.855V60.0932ZM889.084 79.9456L884.154 66.3389H856.25L851.32 79.9456H826.144L858.243 1.87427H882.58L914.68 79.9456H889.084ZM863.069 47.3787H877.335L870.202 27.7493L863.069 47.3787ZM955.591 81.7301C947.829 81.7301 940.835 79.9977 934.611 76.5328C928.387 73.0828 923.506 68.2498 919.967 62.0338C916.442 55.8327 914.68 48.7914 914.68 40.9099C914.68 33.0285 916.442 25.9797 919.967 19.7638C923.506 13.5627 928.387 8.72968 934.611 5.2648C940.835 1.81479 947.829 0.0897827 955.591 0.0897827C962.725 0.0897827 969.089 1.42815 974.683 4.10488C980.278 6.78161 984.894 10.648 988.53 15.7041L972.9 30.5376C968.354 24.4406 963.004 21.3921 956.85 21.3921C951.675 21.3921 947.514 23.1543 944.367 26.6787C941.22 30.2179 939.647 34.9616 939.647 40.9099C939.647 46.8582 941.22 51.5946 944.367 55.1189C947.514 58.6582 951.675 60.4278 956.85 60.4278C963.004 60.4278 968.354 57.3793 972.9 51.2823L988.53 66.1158C984.894 71.1719 980.278 75.0383 974.683 77.715C969.089 80.3917 962.725 81.7301 955.591 81.7301ZM1011.08 79.9456V22.2843H989.579V1.87427H1057.35V22.2843H1035.84V79.9456H1011.08Z" fill="#0093FF"/>
</g>
</g>
<g clip-path="url(#clip8_4_142)">
<g clip-path="url(#clip9_4_142)">
<path d="M292.84 107.176V139.737H286.726V130.944H265.247V139.737H259.133V121.824C259.133 119.203 259.557 116.794 260.404 114.597C261.245 112.4 262.42 110.509 263.928 108.926C265.43 107.343 267.208 106.108 269.262 105.221C271.315 104.34 273.556 103.9 275.982 103.9H289.759C290.182 103.9 290.58 103.982 290.953 104.146C291.331 104.317 291.662 104.552 291.944 104.852C292.227 105.152 292.445 105.5 292.599 105.896C292.759 106.299 292.84 106.725 292.84 107.176ZM265.247 121.824V124.444H286.726V110.4H275.982C275.796 110.4 275.401 110.427 274.797 110.482C274.194 110.543 273.498 110.69 272.708 110.922C271.912 111.154 271.078 111.512 270.205 111.997C269.326 112.481 268.517 113.147 267.779 113.993C267.041 114.846 266.434 115.911 265.959 117.187C265.484 118.456 265.247 120.002 265.247 121.824ZM337.396 112.724V119.224H323.581V112.724H337.396ZM337.396 101.003V107.503H323.619C322.791 107.503 322.166 107.722 321.742 108.158C321.318 108.602 321.106 109.247 321.106 110.093V139.737H314.993V110.093C314.993 108.981 315.128 107.984 315.397 107.104C315.66 106.217 316.017 105.436 316.466 104.76C316.915 104.084 317.429 103.511 318.006 103.04C318.584 102.563 319.191 102.174 319.826 101.873C320.461 101.573 321.1 101.355 321.742 101.218C322.384 101.075 322.997 101.003 323.581 101.003H337.396ZM363.487 112.724V119.224H349.739C348.905 119.224 348.276 119.442 347.852 119.879C347.428 120.322 347.217 120.971 347.217 121.824V139.737H341.113V121.824C341.113 120.704 341.244 119.705 341.507 118.824C341.777 117.937 342.133 117.156 342.576 116.48C343.025 115.805 343.539 115.232 344.117 114.761C344.694 114.283 345.301 113.894 345.936 113.594C346.572 113.294 347.217 113.075 347.871 112.939C348.52 112.795 349.126 112.724 349.691 112.724H363.487ZM395.047 121.824V130.616C395.047 131.729 394.915 132.732 394.652 133.626C394.383 134.52 394.03 135.305 393.593 135.98C393.157 136.649 392.646 137.222 392.062 137.7C391.485 138.178 390.878 138.566 390.243 138.867C389.607 139.16 388.965 139.379 388.317 139.522C387.669 139.665 387.053 139.737 386.469 139.737H375.445C374.598 139.737 373.673 139.58 372.672 139.266C371.671 138.945 370.743 138.423 369.89 137.7C369.036 136.976 368.324 136.035 367.752 134.875C367.181 133.715 366.896 132.295 366.896 130.616V121.824C366.896 120.152 367.181 118.739 367.752 117.586C368.324 116.426 369.036 115.484 369.89 114.761C370.743 114.037 371.671 113.515 372.672 113.195C373.673 112.881 374.598 112.724 375.445 112.724H386.469C388.035 112.724 389.367 113.024 390.464 113.625C391.562 114.225 392.447 114.979 393.121 115.887C393.795 116.794 394.286 117.78 394.594 118.845C394.896 119.909 395.047 120.902 395.047 121.824ZM388.943 130.616V121.865C388.943 120.971 388.731 120.305 388.307 119.869C387.884 119.439 387.271 119.224 386.469 119.224H375.493C374.678 119.224 374.059 119.442 373.635 119.879C373.211 120.322 373 120.971 373 121.824V130.616C373 131.463 373.211 132.111 373.635 132.561C374.059 133.012 374.678 133.237 375.493 133.237H386.469C387.303 133.237 387.922 133.012 388.327 132.561C388.738 132.111 388.943 131.463 388.943 130.616ZM428.397 124.741V139.737H422.293V124.741C422.293 123.895 422.155 123.134 421.879 122.458C421.603 121.783 421.231 121.203 420.762 120.718C420.294 120.234 419.742 119.862 419.106 119.602C418.471 119.35 417.784 119.224 417.046 119.224H406.35V139.737H400.246V115.948C400.246 115.498 400.323 115.075 400.477 114.679C400.637 114.29 400.856 113.949 401.132 113.655C401.414 113.369 401.744 113.14 402.123 112.969C402.502 112.806 402.903 112.724 403.327 112.724H417.094C417.864 112.724 418.676 112.816 419.53 113C420.384 113.184 421.231 113.478 422.072 113.88C422.906 114.29 423.705 114.808 424.469 115.436C425.226 116.057 425.9 116.815 426.491 117.709C427.075 118.603 427.54 119.63 427.887 120.79C428.227 121.957 428.397 123.274 428.397 124.741ZM456.115 112.724V119.224H445.438V139.737H439.257V119.224H431.314V112.724H439.257V103.9H445.438V112.724H456.115ZM482.033 118.896V124.741H459.985V118.896H482.033ZM514.959 121.67C514.959 122.571 514.812 123.54 514.516 124.577C514.221 125.621 513.74 126.587 513.072 127.474C512.405 128.368 511.535 129.115 510.463 129.716C509.391 130.316 508.085 130.616 506.545 130.616H495.521V124.444H506.545C507.379 124.444 508.024 124.175 508.48 123.635C508.929 123.09 509.154 122.417 509.154 121.619C509.154 120.766 508.9 120.101 508.393 119.623C507.886 119.138 507.27 118.896 506.545 118.896H495.521C494.693 118.896 494.051 119.166 493.596 119.705C493.14 120.251 492.912 120.923 492.912 121.721V130.79C492.912 131.657 493.169 132.333 493.682 132.817C494.189 133.302 494.818 133.544 495.569 133.544H506.545V139.737H495.521C494.68 139.737 493.769 139.58 492.787 139.266C491.805 138.945 490.897 138.43 490.062 137.72C489.221 137.017 488.519 136.093 487.954 134.946C487.389 133.807 487.106 132.421 487.106 130.79V121.67C487.106 120.769 487.257 119.797 487.559 118.753C487.854 117.716 488.336 116.75 489.003 115.856C489.671 114.969 490.54 114.225 491.612 113.625C492.684 113.024 493.987 112.724 495.521 112.724H506.545C507.392 112.724 508.307 112.881 509.289 113.195C510.264 113.515 511.172 114.027 512.013 114.73C512.854 115.44 513.557 116.364 514.122 117.504C514.68 118.65 514.959 120.039 514.959 121.67ZM547.231 124.741V139.737H541.118V124.741C541.118 123.895 540.983 123.134 540.713 122.458C540.437 121.783 540.065 121.203 539.596 120.718C539.128 120.234 538.576 119.862 537.94 119.602C537.305 119.35 536.618 119.224 535.88 119.224H525.184V139.737H519.07V115.948C519.07 115.498 519.15 115.075 519.311 114.679C519.465 114.29 519.683 113.949 519.966 113.655C520.248 113.369 520.579 113.14 520.957 112.969C521.33 112.806 521.728 112.724 522.151 112.724H535.928C536.698 112.724 537.51 112.816 538.364 113C539.218 113.184 540.062 113.478 540.896 113.88C541.737 114.29 542.536 114.808 543.293 115.436C544.057 116.057 544.731 116.815 545.315 117.709C545.906 118.603 546.374 119.63 546.721 120.79C547.061 121.957 547.231 123.274 547.231 124.741ZM580.466 101.3V130.616C580.466 131.729 580.334 132.732 580.071 133.626C579.801 134.52 579.448 135.305 579.012 135.98C578.569 136.649 578.059 137.222 577.481 137.7C576.904 138.178 576.297 138.566 575.662 138.867C575.026 139.16 574.384 139.379 573.736 139.522C573.081 139.665 572.465 139.737 571.888 139.737H560.864C559.811 139.737 558.871 139.593 558.043 139.307C557.215 139.027 556.483 138.648 555.848 138.171C555.212 137.7 554.67 137.154 554.221 136.533C553.778 135.919 553.415 135.274 553.133 134.598C552.85 133.923 552.642 133.24 552.507 132.551C552.372 131.862 552.305 131.217 552.305 130.616V121.824C552.305 120.152 552.591 118.739 553.162 117.586C553.739 116.426 554.455 115.484 555.309 114.761C556.162 114.037 557.09 113.515 558.091 113.195C559.092 112.881 560.017 112.724 560.864 112.724H571.888V119.224H560.912C560.097 119.224 559.478 119.442 559.054 119.879C558.63 120.322 558.418 120.971 558.418 121.824V130.565C558.418 131.446 558.627 132.111 559.044 132.561C559.455 133.012 560.062 133.237 560.864 133.237H571.888C572.716 133.237 573.335 133.012 573.746 132.561C574.15 132.111 574.352 131.463 574.352 130.616V101.3H580.466ZM608.155 101.3V107.176H602.041V101.3H608.155ZM608.155 112.724V142.337C608.155 143.449 608.02 144.452 607.751 145.346C607.487 146.24 607.134 147.025 606.692 147.7C606.255 148.369 605.748 148.942 605.17 149.42C604.586 149.898 603.977 150.287 603.341 150.587C602.706 150.887 602.067 151.106 601.425 151.242C600.783 151.385 600.174 151.457 599.596 151.457H588.572V144.957H599.596C600.411 144.957 601.021 144.732 601.425 144.282C601.836 143.831 602.041 143.183 602.041 142.337V112.724H608.155ZM641.64 121.824V130.616C641.64 131.729 641.508 132.732 641.245 133.626C640.976 134.52 640.623 135.305 640.186 135.98C639.75 136.649 639.239 137.222 638.655 137.7C638.078 138.178 637.471 138.566 636.836 138.867C636.2 139.16 635.558 139.379 634.91 139.522C634.262 139.665 633.646 139.737 633.062 139.737H622.038C621.191 139.737 620.267 139.58 619.265 139.266C618.264 138.945 617.337 138.423 616.483 137.7C615.629 136.976 614.917 136.035 614.346 134.875C613.774 133.715 613.489 132.295 613.489 130.616V121.824C613.489 120.152 613.774 118.739 614.346 117.586C614.917 116.426 615.629 115.484 616.483 114.761C617.337 114.037 618.264 113.515 619.265 113.195C620.267 112.881 621.191 112.724 622.038 112.724H633.062C634.628 112.724 635.96 113.024 637.057 113.625C638.155 114.225 639.04 114.979 639.714 115.887C640.388 116.794 640.879 117.78 641.187 118.845C641.489 119.909 641.64 120.902 641.64 121.824ZM635.536 130.616V121.865C635.536 120.971 635.324 120.305 634.901 119.869C634.477 119.439 633.864 119.224 633.062 119.224H622.086C621.271 119.224 620.652 119.442 620.228 119.879C619.804 120.322 619.593 120.971 619.593 121.824V130.616C619.593 131.463 619.804 132.111 620.228 132.561C620.652 133.012 621.271 133.237 622.086 133.237H633.062C633.896 133.237 634.515 133.012 634.92 132.561C635.331 132.111 635.536 131.463 635.536 130.616ZM674.615 112.724V136.461C674.615 136.932 674.538 137.365 674.384 137.761C674.229 138.164 674.014 138.508 673.738 138.795C673.463 139.089 673.142 139.321 672.776 139.491C672.403 139.655 672.005 139.737 671.582 139.737H657.766C657.015 139.737 656.213 139.645 655.359 139.46C654.506 139.276 653.662 138.979 652.827 138.57C651.999 138.167 651.197 137.652 650.42 137.024C649.644 136.403 648.967 135.646 648.389 134.752C647.805 133.858 647.339 132.827 646.993 131.661C646.64 130.5 646.463 129.187 646.463 127.72V112.724H652.567V127.72C652.567 128.566 652.705 129.327 652.981 130.002C653.257 130.678 653.63 131.258 654.098 131.742C654.567 132.227 655.119 132.595 655.754 132.848C656.389 133.107 657.076 133.237 657.814 133.237H668.511V112.724H674.615ZM702.583 112.724V119.224H688.835C688.007 119.224 687.381 119.442 686.957 119.879C686.534 120.322 686.322 120.971 686.322 121.824V139.737H680.208V121.824C680.208 120.704 680.343 119.705 680.613 118.824C680.876 117.937 681.232 117.156 681.681 116.48C682.124 115.805 682.638 115.232 683.222 114.761C683.799 114.283 684.406 113.894 685.041 113.594C685.677 113.294 686.319 113.075 686.967 112.939C687.615 112.795 688.222 112.724 688.786 112.724H702.583ZM734.759 124.741V139.737H728.655V124.741C728.655 123.895 728.517 123.134 728.241 122.458C727.965 121.783 727.592 121.203 727.124 120.718C726.655 120.234 726.103 119.862 725.468 119.602C724.832 119.35 724.146 119.224 723.408 119.224H712.711V139.737H706.607V115.948C706.607 115.498 706.684 115.075 706.838 114.679C706.992 114.29 707.211 113.949 707.493 113.655C707.775 113.369 708.106 113.14 708.485 112.969C708.863 112.806 709.261 112.724 709.679 112.724H723.456C724.226 112.724 725.038 112.816 725.891 113C726.745 113.184 727.592 113.478 728.433 113.88C729.268 114.29 730.067 114.808 730.83 115.436C731.588 116.057 732.259 116.815 732.843 117.709C733.433 118.603 733.902 119.63 734.248 120.79C734.588 121.957 734.759 123.274 734.759 124.741ZM767.454 121.67C767.454 122.571 767.306 123.54 767.011 124.577C766.709 125.621 766.228 126.587 765.567 127.474C764.899 128.368 764.03 129.115 762.958 129.716C761.88 130.316 760.573 130.616 759.039 130.616H748.016V124.444H759.039C759.874 124.444 760.516 124.175 760.965 123.635C761.421 123.09 761.649 122.417 761.649 121.619C761.649 120.766 761.395 120.101 760.888 119.623C760.374 119.138 759.758 118.896 759.039 118.896H748.016C747.188 118.896 746.546 119.166 746.09 119.705C745.635 120.251 745.407 120.923 745.407 121.721V130.79C745.407 131.657 745.663 132.333 746.177 132.817C746.684 133.302 747.313 133.544 748.064 133.544H759.039V139.737H748.016C747.169 139.737 746.257 139.58 745.282 139.266C744.3 138.945 743.391 138.43 742.557 137.72C741.716 137.017 741.013 136.093 740.448 134.946C739.884 133.807 739.601 132.421 739.601 130.79V121.67C739.601 120.769 739.752 119.797 740.054 118.753C740.349 117.716 740.83 116.75 741.498 115.856C742.159 114.969 743.029 114.225 744.107 113.625C745.179 113.024 746.482 112.724 748.016 112.724H759.039C759.887 112.724 760.801 112.881 761.783 113.195C762.759 113.515 763.667 114.027 764.508 114.73C765.342 115.44 766.042 116.364 766.607 117.504C767.172 118.65 767.454 120.039 767.454 121.67ZM799.581 112.724V142.337C799.581 143.449 799.45 144.452 799.187 145.346C798.917 146.24 798.564 147.025 798.128 147.7C797.691 148.369 797.181 148.942 796.597 149.42C796.019 149.898 795.413 150.287 794.777 150.587C794.142 150.887 793.503 151.106 792.861 151.242C792.22 151.385 791.61 151.457 791.032 151.457H780.008V144.957H791.032C791.847 144.957 792.457 144.732 792.861 144.282C793.272 143.831 793.478 143.183 793.478 142.337V112.724H799.581ZM791.032 133.237V139.737H780.008C779.129 139.737 778.192 139.58 777.197 139.266C776.202 138.945 775.275 138.423 774.415 137.7C773.548 136.976 772.833 136.035 772.268 134.875C771.709 133.715 771.43 132.295 771.43 130.616V112.724H777.534V130.616C777.534 131.463 777.746 132.111 778.17 132.561C778.593 133.012 779.222 133.237 780.057 133.237H791.032Z" fill="#404756"/>
</g>
</g>
</g>
</g>
</g>
</g>
</g>
</g>
<defs>
<clipPath id="clip0_4_142">
<rect width="1060" height="180" fill="white"/>
</clipPath>
<clipPath id="clip1_4_142">
<rect width="1060" height="150.453" fill="white" transform="translate(-0.642456 0.546906)"/>
</clipPath>
<clipPath id="clip2_4_142">
<rect width="1056.04" height="151.367" fill="white" transform="translate(1.33838 0.0897827)"/>
</clipPath>
<clipPath id="clip3_4_142">
<rect width="1056.04" height="151.367" fill="white" transform="translate(1.33838 0.0897827)"/>
</clipPath>
<clipPath id="clip4_4_142">
<rect width="1056.04" height="151.367" fill="white" transform="translate(1.33838 0.0897827)"/>
</clipPath>
<clipPath id="clip5_4_142">
<rect width="1056.04" height="151.367" fill="white" transform="translate(1.33838 0.0897827)"/>
</clipPath>
<clipPath id="clip6_4_142">
<rect width="1056.04" height="81.6403" fill="white" transform="translate(1.33838 0.0897827)"/>
</clipPath>
<clipPath id="clip7_4_142">
<rect width="1056.04" height="81.6403" fill="white" transform="translate(1.33838 0.0897827)"/>
</clipPath>
<clipPath id="clip8_4_142">
<rect width="583.196" height="50.4537" fill="white" transform="translate(237.76 101.003)"/>
</clipPath>
<clipPath id="clip9_4_142">
<rect width="540.476" height="50.4537" fill="white" transform="translate(259.12 101.003)"/>
</clipPath>
</defs>
</svg>
