<svg xmlns="http://www.w3.org/2000/svg" version="1.1" xmlns:xlink="http://www.w3.org/1999/xlink" xmlns:svgjs="http://svgjs.dev/svgjs" width="2000" height="267" viewBox="0 0 2000 267"><g transform="matrix(1,0,0,1,-1.2121212121212466,0.811251160370432)"><svg viewBox="0 0 396 53" data-background-color="#ffffff" preserveAspectRatio="xMidYMid meet" height="267" width="2000" xmlns="http://www.w3.org/2000/svg" xmlns:xlink="http://www.w3.org/1999/xlink"><g id="tight-bounds" transform="matrix(1,0,0,1,0.2400000000000091,-0.1610342750314544)"><svg viewBox="0 0 395.52 53.322069149561926" height="53.322069149561926" width="395.52"><g><svg viewBox="0 0 395.52 53.322069149561926" height="53.322069149561926" width="395.52"><g><svg viewBox="0 0 395.52 53.322069149561926" height="53.322069149561926" width="395.52"><g><svg viewBox="0 0 395.52 53.322069149561926" height="53.322069149561926" width="395.52"><g><rect width="88.54729407023464" height="2.593550223552248" y="43.138646798290424" fill="#4b91f1" data-fill-palette-color="tertiary"></rect><rect width="88.54729407023464" height="2.593550223552248" y="43.138646798290424" x="306.9727059297653" fill="#4b91f1" data-fill-palette-color="tertiary"></rect></g><g><svg viewBox="0 0 395.52 28.7593761795967" height="28.7593761795967" width="395.52"><g transform="matrix(1,0,0,1,0,0)"><svg width="395.52" viewBox="2.8499999046325684 -35.79999923706055 503.32000732421875 36.599998474121094" height="28.7593761795967" data-palette-color="#4b91f1"><path d="M23.8 0L17.85-8.8 14.65-8.8 14.65 0 2.85 0 2.85-35 19.7-35Q24.55-35 28.15-33.4 31.75-31.8 33.7-28.8 35.65-25.8 35.65-21.8L35.65-21.8Q35.65-18.05 33.95-15.25 32.25-12.45 29.05-10.8L29.05-10.8 36.4 0 23.8 0ZM23.75-21.8Q23.75-23.75 22.55-24.83 21.35-25.9 18.95-25.9L18.95-25.9 14.65-25.9 14.65-17.7 18.95-17.7Q21.35-17.7 22.55-18.78 23.75-19.85 23.75-21.8L23.75-21.8ZM58.45 0.8Q52.8 0.8 48.3-1.55 43.8-3.9 41.25-8.08 38.7-12.25 38.7-17.5L38.7-17.5Q38.7-22.75 41.25-26.93 43.8-31.1 48.3-33.45 52.8-35.8 58.45-35.8L58.45-35.8Q64.1-35.8 68.6-33.45 73.1-31.1 75.65-26.93 78.2-22.75 78.2-17.5L78.2-17.5Q78.2-12.25 75.65-8.08 73.1-3.9 68.6-1.55 64.1 0.8 58.45 0.8L58.45 0.8ZM58.45-8.75Q60.65-8.75 62.42-9.83 64.2-10.9 65.25-12.88 66.3-14.85 66.3-17.5L66.3-17.5Q66.3-20.15 65.25-22.13 64.2-24.1 62.42-25.18 60.65-26.25 58.45-26.25L58.45-26.25Q56.25-26.25 54.47-25.18 52.7-24.1 51.65-22.13 50.6-20.15 50.6-17.5L50.6-17.5Q50.6-14.85 51.65-12.88 52.7-10.9 54.47-9.83 56.25-8.75 58.45-8.75L58.45-8.75ZM100.6 0.8Q95.05 0.8 90.6-1.53 86.15-3.85 83.62-8.03 81.1-12.2 81.1-17.5L81.1-17.5Q81.1-22.8 83.62-26.98 86.15-31.15 90.6-33.48 95.05-35.8 100.6-35.8L100.6-35.8Q105.7-35.8 109.7-34 113.7-32.2 116.3-28.8L116.3-28.8 108.85-22.15Q105.6-26.25 101.2-26.25L101.2-26.25Q97.5-26.25 95.25-23.88 93-21.5 93-17.5L93-17.5Q93-13.5 95.25-11.13 97.5-8.75 101.2-8.75L101.2-8.75Q105.6-8.75 108.85-12.85L108.85-12.85 116.3-6.2Q113.7-2.8 109.7-1 105.7 0.8 100.6 0.8L100.6 0.8ZM142.69 0L133.94-11.6 131.29-8.65 131.29 0 119.69 0 119.69-35 131.29-35 131.29-22.3 142.79-35 155.64-35 141.64-19.6 156.34 0 142.69 0ZM169.54-8.9L187.04-8.9 187.04 0 157.94 0 157.94-35 186.39-35 186.39-26.1 169.54-26.1 169.54-22 184.34-22 184.34-13.5 169.54-13.5 169.54-8.9ZM199.19 0L199.19-25.85 188.94-25.85 188.94-35 221.24-35 221.24-25.85 210.99-25.85 210.99 0 199.19 0ZM246.88 0L246.88-25.85 236.63-25.85 236.63-35 268.93-35 268.93-25.85 258.68-25.85 258.68 0 246.88 0ZM289.83 0.8Q284.18 0.8 279.68-1.55 275.18-3.9 272.63-8.08 270.08-12.25 270.08-17.5L270.08-17.5Q270.08-22.75 272.63-26.93 275.18-31.1 279.68-33.45 284.18-35.8 289.83-35.8L289.83-35.8Q295.48-35.8 299.98-33.45 304.48-31.1 307.03-26.93 309.58-22.75 309.58-17.5L309.58-17.5Q309.58-12.25 307.03-8.08 304.48-3.9 299.98-1.55 295.48 0.8 289.83 0.8L289.83 0.8ZM289.83-8.75Q292.03-8.75 293.81-9.83 295.58-10.9 296.63-12.88 297.68-14.85 297.68-17.5L297.68-17.5Q297.68-20.15 296.63-22.13 295.58-24.1 293.81-25.18 292.03-26.25 289.83-26.25L289.83-26.25Q287.63-26.25 285.86-25.18 284.08-24.1 283.03-22.13 281.98-20.15 281.98-17.5L281.98-17.5Q281.98-14.85 283.03-12.88 284.08-10.9 285.86-9.83 287.63-8.75 289.83-8.75L289.83-8.75ZM349.83 0L343.88-8.8 340.68-8.8 340.68 0 328.88 0 328.88-35 345.73-35Q350.58-35 354.18-33.4 357.78-31.8 359.73-28.8 361.68-25.8 361.68-21.8L361.68-21.8Q361.68-18.05 359.98-15.25 358.28-12.45 355.08-10.8L355.08-10.8 362.43 0 349.83 0ZM349.78-21.8Q349.78-23.75 348.58-24.83 347.38-25.9 344.98-25.9L344.98-25.9 340.68-25.9 340.68-17.7 344.98-17.7Q347.38-17.7 348.58-18.78 349.78-19.85 349.78-21.8L349.78-21.8ZM377.72-8.9L395.22-8.9 395.22 0 366.12 0 366.12-35 394.57-35 394.57-26.1 377.72-26.1 377.72-22 392.52-22 392.52-13.5 377.72-13.5 377.72-8.9ZM425.97 0L423.62-6.1 410.32-6.1 407.97 0 395.97 0 411.27-35 422.87-35 438.17 0 425.97 0ZM413.57-14.6L420.37-14.6 416.97-23.4 413.57-14.6ZM457.67 0.8Q452.12 0.8 447.67-1.53 443.22-3.85 440.69-8.03 438.17-12.2 438.17-17.5L438.17-17.5Q438.17-22.8 440.69-26.98 443.22-31.15 447.67-33.48 452.12-35.8 457.67-35.8L457.67-35.8Q462.77-35.8 466.77-34 470.77-32.2 473.37-28.8L473.37-28.8 465.92-22.15Q462.67-26.25 458.27-26.25L458.27-26.25Q454.57-26.25 452.32-23.88 450.07-21.5 450.07-17.5L450.07-17.5Q450.07-13.5 452.32-11.13 454.57-8.75 458.27-8.75L458.27-8.75Q462.67-8.75 465.92-12.85L465.92-12.85 473.37-6.2Q470.77-2.8 466.77-1 462.77 0.8 457.67 0.8L457.67 0.8ZM484.12 0L484.12-25.85 473.87-25.85 473.87-35 506.17-35 506.17-25.85 495.92-25.85 495.92 0 484.12 0Z" opacity="1" transform="matrix(1,0,0,1,0,0)" fill="#4b91f1" class="undefined-text-0" data-fill-palette-color="primary" id="text-0"></path></svg></g></svg></g><g transform="matrix(1,0,0,1,88.54729407023464,35.54877467057117)"><svg viewBox="0 0 218.4254118595307 17.77329447899076" height="17.77329447899076" width="218.4254118595307"><g transform="matrix(1,0,0,1,8,0)"><svg width="202.4254118595307" viewBox="3.0299999713897705 -37.84000015258789 561.3499755859375 49.290000915527344" height="17.77329447899076" data-palette-color="#4b91f1"><path d="M38.04-31.81L38.04 0 31.69 0 31.69-8.59 9.38-8.59 9.38 0 3.03 0 3.03-17.5Q3.03-21.34 4.35-24.56 5.66-27.78 8.01-30.1 10.35-32.42 13.55-33.72 16.75-35.01 20.53-35.01L20.53-35.01 34.84-35.01Q35.5-35.01 36.08-34.77 36.67-34.52 37.11-34.08 37.55-33.64 37.79-33.06 38.04-32.47 38.04-31.81L38.04-31.81ZM9.38-17.5L9.38-14.94 31.69-14.94 31.69-28.66 20.53-28.66Q20.24-28.66 19.3-28.58 18.36-28.49 17.13-28.15 15.89-27.81 14.53-27.1 13.16-26.39 12.01-25.15 10.86-23.9 10.12-22.03 9.38-20.17 9.38-17.5L9.38-17.5ZM84.32-26.39L84.32-20.04 69.97-20.04 69.97-26.39 84.32-26.39ZM84.32-37.84L84.32-31.49 70.01-31.49Q68.72-31.49 68.06-30.85 67.4-30.2 67.4-28.96L67.4-28.96 67.4 0 61.05 0 61.05-28.96Q61.05-30.59 61.47-31.88 61.88-33.18 62.58-34.17 63.28-35.16 64.18-35.85 65.08-36.55 66.07-36.99 67.06-37.43 68.06-37.63 69.06-37.84 69.97-37.84L69.97-37.84 84.32-37.84ZM111.42-26.39L111.42-20.04 97.14-20.04Q95.84-20.04 95.18-19.4 94.52-18.75 94.52-17.5L94.52-17.5 94.52 0 88.18 0 88.18-17.5Q88.18-19.14 88.59-20.43 89.01-21.73 89.7-22.72 90.4-23.71 91.3-24.4 92.2-25.1 93.19-25.54 94.18-25.98 95.2-26.18 96.21-26.39 97.09-26.39L97.09-26.39 111.42-26.39ZM144.2-17.5L144.2-8.91Q144.2-7.28 143.79-5.97 143.37-4.66 142.69-3.67 142.01-2.69 141.1-1.99 140.2-1.29 139.21-0.85 138.22-0.42 137.21-0.21 136.2 0 135.29 0L135.29 0 123.84 0Q122.52 0 120.96-0.46 119.4-0.93 118.07-1.99 116.74-3.05 115.85-4.75 114.96-6.45 114.96-8.91L114.96-8.91 114.96-17.5Q114.96-19.95 115.85-21.64 116.74-23.34 118.07-24.4 119.4-25.46 120.96-25.93 122.52-26.39 123.84-26.39L123.84-26.39 135.29-26.39Q137.73-26.39 139.44-25.51 141.15-24.63 142.2-23.3 143.25-21.97 143.73-20.41 144.2-18.85 144.2-17.5L144.2-17.5ZM137.86-8.91L137.86-17.46Q137.86-18.77 137.2-19.41 136.54-20.04 135.29-20.04L135.29-20.04 123.89-20.04Q122.62-20.04 121.96-19.4 121.3-18.75 121.3-17.5L121.3-17.5 121.3-8.91Q121.3-7.67 121.96-7.01 122.62-6.35 123.89-6.35L123.89-6.35 135.29-6.35Q136.59-6.35 137.22-7.01 137.86-7.67 137.86-8.91L137.86-8.91ZM178.84-14.65L178.84 0 172.5 0 172.5-14.65Q172.5-15.89 172.07-16.88 171.64-17.87 170.91-18.58 170.18-19.29 169.19-19.67 168.2-20.04 167.05-20.04L167.05-20.04 155.94-20.04 155.94 0 149.6 0 149.6-23.24Q149.6-23.9 149.84-24.48 150.09-25.05 150.52-25.48 150.96-25.9 151.55-26.15 152.14-26.39 152.8-26.39L152.8-26.39 167.1-26.39Q168.3-26.39 169.63-26.12 170.96-25.85 172.27-25.26 173.57-24.66 174.76-23.74 175.94-22.83 176.86-21.52 177.77-20.21 178.31-18.51 178.84-16.8 178.84-14.65L178.84-14.65ZM207.63-26.39L207.63-20.04 196.54-20.04 196.54 0 190.12 0 190.12-20.04 181.87-20.04 181.87-26.39 190.12-26.39 190.12-35.01 196.54-35.01 196.54-26.39 207.63-26.39ZM234.55-20.36L234.55-14.65 211.65-14.65 211.65-20.36 234.55-20.36ZM268.75-17.65L268.75-17.65Q268.75-16.33 268.29-14.81 267.83-13.28 266.79-11.98 265.75-10.67 264.08-9.79 262.41-8.91 260.01-8.91L260.01-8.91 248.56-8.91 248.56-14.94 260.01-14.94Q261.31-14.94 262.02-15.73 262.72-16.53 262.72-17.7L262.72-17.7Q262.72-18.95 261.93-19.65 261.14-20.36 260.01-20.36L260.01-20.36 248.56-20.36Q247.27-20.36 246.56-19.57 245.85-18.77 245.85-17.6L245.85-17.6 245.85-8.74Q245.85-7.47 246.65-6.76 247.44-6.05 248.61-6.05L248.61-6.05 260.01-6.05 260.01 0 248.56 0Q247.25 0 245.72-0.46 244.19-0.93 242.89-1.97 241.58-3 240.7-4.68 239.82-6.35 239.82-8.74L239.82-8.74 239.82-17.65Q239.82-18.97 240.29-20.5 240.75-22.02 241.79-23.33 242.83-24.63 244.5-25.51 246.17-26.39 248.56-26.39L248.56-26.39 260.01-26.39Q261.33-26.39 262.86-25.93 264.38-25.46 265.69-24.43 267-23.39 267.88-21.72 268.75-20.04 268.75-17.65ZM302.27-14.65L302.27 0 295.92 0 295.92-14.65Q295.92-15.89 295.5-16.88 295.07-17.87 294.34-18.58 293.61-19.29 292.62-19.67 291.63-20.04 290.48-20.04L290.48-20.04 279.37-20.04 279.37 0 273.02 0 273.02-23.24Q273.02-23.9 273.27-24.48 273.51-25.05 273.95-25.48 274.39-25.9 274.98-26.15 275.56-26.39 276.22-26.39L276.22-26.39 290.53-26.39Q291.73-26.39 293.06-26.12 294.39-25.85 295.69-25.26 297-24.66 298.18-23.74 299.37-22.83 300.28-21.52 301.2-20.21 301.74-18.51 302.27-16.8 302.27-14.65L302.27-14.65ZM336.79-37.55L336.79-8.91Q336.79-7.28 336.38-5.97 335.96-4.66 335.28-3.67 334.59-2.69 333.69-1.99 332.79-1.29 331.8-0.85 330.81-0.42 329.8-0.21 328.78 0 327.88 0L327.88 0 316.43 0Q314.79 0 313.5-0.42 312.21-0.83 311.22-1.53 310.23-2.22 309.53-3.13 308.84-4.03 308.4-5.02 307.96-6.01 307.75-7.02 307.54-8.03 307.54-8.91L307.54-8.91 307.54-17.5Q307.54-19.95 308.43-21.64 309.33-23.34 310.66-24.4 311.99-25.46 313.55-25.93 315.11-26.39 316.43-26.39L316.43-26.39 327.88-26.39 327.88-20.04 316.48-20.04Q315.21-20.04 314.55-19.4 313.89-18.75 313.89-17.5L313.89-17.5 313.89-8.96Q313.89-7.67 314.54-7.01 315.18-6.35 316.43-6.35L316.43-6.35 327.88-6.35Q329.17-6.35 329.81-7.01 330.44-7.67 330.44-8.91L330.44-8.91 330.44-37.55 336.79-37.55ZM365.55-37.55L365.55-31.81 359.2-31.81 359.2-37.55 365.55-37.55ZM365.55-26.39L365.55 2.54Q365.55 4.17 365.13 5.48 364.72 6.79 364.03 7.78 363.35 8.76 362.45 9.46 361.54 10.16 360.55 10.6 359.56 11.04 358.56 11.24 357.56 11.45 356.66 11.45L356.66 11.45 345.21 11.45 345.21 5.1 356.66 5.1Q357.93 5.1 358.56 4.44 359.2 3.78 359.2 2.54L359.2 2.54 359.2-26.39 365.55-26.39ZM400.33-17.5L400.33-8.91Q400.33-7.28 399.92-5.97 399.5-4.66 398.82-3.67 398.14-2.69 397.23-1.99 396.33-1.29 395.34-0.85 394.35-0.42 393.34-0.21 392.33 0 391.42 0L391.42 0 379.97 0Q378.65 0 377.09-0.46 375.53-0.93 374.2-1.99 372.87-3.05 371.98-4.75 371.09-6.45 371.09-8.91L371.09-8.91 371.09-17.5Q371.09-19.95 371.98-21.64 372.87-23.34 374.2-24.4 375.53-25.46 377.09-25.93 378.65-26.39 379.97-26.39L379.97-26.39 391.42-26.39Q393.86-26.39 395.57-25.51 397.28-24.63 398.33-23.3 399.38-21.97 399.86-20.41 400.33-18.85 400.33-17.5L400.33-17.5ZM393.99-8.91L393.99-17.46Q393.99-18.77 393.33-19.41 392.67-20.04 391.42-20.04L391.42-20.04 380.02-20.04Q378.75-20.04 378.09-19.4 377.43-18.75 377.43-17.5L377.43-17.5 377.43-8.91Q377.43-7.67 378.09-7.01 378.75-6.35 380.02-6.35L380.02-6.35 391.42-6.35Q392.72-6.35 393.35-7.01 393.99-7.67 393.99-8.91L393.99-8.91ZM434.58-26.39L434.58-3.2Q434.58-2.51 434.34-1.93 434.1-1.34 433.67-0.92 433.24-0.49 432.67-0.24 432.09 0 431.43 0L431.43 0 417.08 0Q415.91 0 414.58-0.27 413.25-0.54 411.95-1.14 410.66-1.73 409.45-2.65 408.24-3.56 407.34-4.87 406.43-6.18 405.89-7.89 405.34-9.59 405.34-11.74L405.34-11.74 405.34-26.39 411.68-26.39 411.68-11.74Q411.68-10.5 412.11-9.51 412.54-8.52 413.27-7.81 414-7.1 414.99-6.73 415.98-6.35 417.13-6.35L417.13-6.35 428.24-6.35 428.24-26.39 434.58-26.39ZM463.63-26.39L463.63-20.04 449.35-20.04Q448.06-20.04 447.4-19.4 446.74-18.75 446.74-17.5L446.74-17.5 446.74 0 440.39 0 440.39-17.5Q440.39-19.14 440.81-20.43 441.22-21.73 441.92-22.72 442.61-23.71 443.52-24.4 444.42-25.1 445.41-25.54 446.4-25.98 447.41-26.18 448.42-26.39 449.3-26.39L449.3-26.39 463.63-26.39ZM497.05-14.65L497.05 0 490.71 0 490.71-14.65Q490.71-15.89 490.28-16.88 489.85-17.87 489.12-18.58 488.39-19.29 487.4-19.67 486.41-20.04 485.26-20.04L485.26-20.04 474.15-20.04 474.15 0 467.81 0 467.81-23.24Q467.81-23.9 468.05-24.48 468.29-25.05 468.73-25.48 469.17-25.9 469.76-26.15 470.35-26.39 471-26.39L471-26.39 485.31-26.39Q486.51-26.39 487.84-26.12 489.17-25.85 490.48-25.26 491.78-24.66 492.97-23.74 494.15-22.83 495.06-21.52 495.98-20.21 496.52-18.51 497.05-16.8 497.05-14.65L497.05-14.65ZM531.01-17.65L531.01-17.65Q531.01-16.33 530.55-14.81 530.08-13.28 529.05-11.98 528.01-10.67 526.34-9.79 524.66-8.91 522.27-8.91L522.27-8.91 510.82-8.91 510.82-14.94 522.27-14.94Q523.57-14.94 524.27-15.73 524.98-16.53 524.98-17.7L524.98-17.7Q524.98-18.95 524.19-19.65 523.39-20.36 522.27-20.36L522.27-20.36 510.82-20.36Q509.53-20.36 508.82-19.57 508.11-18.77 508.11-17.6L508.11-17.6 508.11-8.74Q508.11-7.47 508.91-6.76 509.7-6.05 510.87-6.05L510.87-6.05 522.27-6.05 522.27 0 510.82 0Q509.5 0 507.98-0.46 506.45-0.93 505.15-1.97 503.84-3 502.96-4.68 502.08-6.35 502.08-8.74L502.08-8.74 502.08-17.65Q502.08-18.97 502.55-20.5 503.01-22.02 504.05-23.33 505.08-24.63 506.76-25.51 508.43-26.39 510.82-26.39L510.82-26.39 522.27-26.39Q523.59-26.39 525.12-25.93 526.64-25.46 527.95-24.43 529.25-23.39 530.13-21.72 531.01-20.04 531.01-17.65ZM564.38-26.39L564.38 2.54Q564.38 4.17 563.97 5.48 563.55 6.79 562.87 7.78 562.19 8.76 561.28 9.46 560.38 10.16 559.39 10.6 558.4 11.04 557.4 11.24 556.4 11.45 555.5 11.45L555.5 11.45 544.05 11.45 544.05 5.1 555.5 5.1Q556.77 5.1 557.4 4.44 558.04 3.78 558.04 2.54L558.04 2.54 558.04-26.39 564.38-26.39ZM555.5-6.35L555.5 0 544.05 0Q542.68 0 541.13-0.46 539.58-0.93 538.24-1.99 536.89-3.05 536.01-4.75 535.14-6.45 535.14-8.91L535.14-8.91 535.14-26.39 541.48-26.39 541.48-8.91Q541.48-7.67 542.14-7.01 542.8-6.35 544.1-6.35L544.1-6.35 555.5-6.35Z" opacity="1" transform="matrix(1,0,0,1,0,0)" fill="#4b91f1" class="undefined-text-1" data-fill-palette-color="secondary" id="text-1"></path></svg></g></svg></g></svg></g></svg></g><g></g></svg></g><defs></defs></svg><rect width="395.52" height="53.322069149561926" fill="none" stroke="none" visibility="hidden"></rect></g></svg></g></svg>